<svg xmlns="http://www.w3.org/2000/svg" viewBox="0 0 64 64">
  <!-- Uap kopi -->
  <path
    d="M23 17c-4 5 4 7 0 12"
    fill="none"
    stroke="#c69575"
    stroke-width="4"
    stroke-linecap="round"
  />

  <path
    d="M32 14c-4 5 4 7 0 12"
    fill="none"
    stroke="#987c68"
    stroke-width="4"
    stroke-linecap="round"
  />

  <path
    d="M41 17c-4 5 4 7 0 12"
    fill="none"
    stroke="#9e795e"
    stroke-width="4"
    stroke-linecap="round"
  />

  <!-- Cangkir -->
  <path
    d="M15 29h34v13c0 9-7 15-17 15s-17-6-17-15V29z"
    fill="#e8e1dc"
  />

  <!-- Kopi -->
  <path
    d="M17 29h30v7H17z"
    fill="#3E2723"
  />

  <!-- Pegangan cangkir -->
  <path
    d="M49 32h3c7 0 10 4 10 9s-3 10-10 10h-5"
    fill="none"
    stroke="#e8e1dc"
    stroke-width="5"
    stroke-linecap="round"
  />

  <!-- Alas cangkir -->
  <path
    d="M11 58h42"
    fill="none"
    stroke="#eae2dc"
    stroke-width="5"
    stroke-linecap="round"
  />
</svg>